<svg width="480" height="480" viewBox="0 0 480 480" fill="none" xmlns="http://www.w3.org/2000/svg">
<g filter="url(#filter0_d_2099_47)">
<circle cx="240" cy="236" r="195" fill="white"/>
</g>
<circle cx="240.325" cy="236.325" r="183.356" fill="#FF5CB4"/>
<path d="M423.682 236.325C423.682 266.235 416.365 295.69 402.369 322.123C388.374 348.556 368.124 371.164 343.387 387.976C318.649 404.787 290.175 415.292 260.446 418.574C230.717 421.856 200.637 417.816 172.828 406.806C145.018 395.795 120.325 378.149 100.9 355.406C81.4756 332.662 67.9096 305.513 61.3851 276.323C54.8605 247.134 55.5756 216.792 63.4679 187.943C71.3602 159.093 86.1901 132.613 106.665 110.809L240.325 236.325L423.682 236.325Z" fill="#FFCE20"/>
<path d="M423.682 236.325C423.682 267.21 415.88 297.594 401.002 324.658C386.123 351.722 364.649 374.59 338.573 391.138C312.496 407.687 282.662 417.381 251.838 419.32C221.015 421.259 190.201 415.381 162.256 402.231L240.325 236.325L423.682 236.325Z" fill="#00D2A0"/>
<path d="M423.682 236.325C423.682 275.046 411.423 312.774 388.664 344.1C365.904 375.426 333.812 398.742 296.986 410.708L240.325 236.325L423.682 236.325Z" fill="#86AAF1"/>
<path d="M423.682 236.325C423.682 275.046 411.423 312.774 388.664 344.1L240.325 236.325L423.682 236.325Z" fill="#6D73F5"/>
<defs>
<filter id="filter0_d_2099_47" x="0" y="0" width="480" height="480" filterUnits="userSpaceOnUse" color-interpolation-filters="sRGB">
<feFlood flood-opacity="0" result="BackgroundImageFix"/>
<feColorMatrix in="SourceAlpha" type="matrix" values="0 0 0 0 0 0 0 0 0 0 0 0 0 0 0 0 0 0 127 0" result="hardAlpha"/>
<feOffset dy="4"/>
<feGaussianBlur stdDeviation="22.5"/>
<feComposite in2="hardAlpha" operator="out"/>
<feColorMatrix type="matrix" values="0 0 0 0 0 0 0 0 0 0 0 0 0 0 0 0 0 0 0.07 0"/>
<feBlend mode="normal" in2="BackgroundImageFix" result="effect1_dropShadow_2099_47"/>
<feBlend mode="normal" in="SourceGraphic" in2="effect1_dropShadow_2099_47" result="shape"/>
</filter>
</defs>
</svg>
