<svg width="480" height="480" viewBox="0 0 480 480" fill="none" xmlns="http://www.w3.org/2000/svg">
<g filter="url(#filter0_d_2725_245)">
<circle cx="240" cy="236" r="195" fill="white"/>
</g>
<circle cx="240.325" cy="236.325" r="183.356" fill="#FF5CB4"/>
<path d="M345.307 85.998C381.101 110.994 406.8 147.942 417.784 190.196C428.768 232.449 424.314 277.235 405.225 316.498C386.135 355.761 353.663 386.925 313.648 404.383C273.633 421.841 228.701 424.449 186.936 411.736C145.17 399.024 109.31 371.826 85.8071 335.035C62.304 298.244 52.6999 254.273 58.722 211.033C64.7442 167.793 85.9975 128.12 118.659 99.151C151.321 70.1819 193.247 53.8175 236.897 53.0013L240.325 236.325L345.307 85.998Z" fill="#6D73F5"/>
<defs>
<filter id="filter0_d_2725_245" x="0" y="0" width="480" height="480" filterUnits="userSpaceOnUse" color-interpolation-filters="sRGB">
<feFlood flood-opacity="0" result="BackgroundImageFix"/>
<feColorMatrix in="SourceAlpha" type="matrix" values="0 0 0 0 0 0 0 0 0 0 0 0 0 0 0 0 0 0 127 0" result="hardAlpha"/>
<feOffset dy="4"/>
<feGaussianBlur stdDeviation="22.5"/>
<feComposite in2="hardAlpha" operator="out"/>
<feColorMatrix type="matrix" values="0 0 0 0 0 0 0 0 0 0 0 0 0 0 0 0 0 0 0.07 0"/>
<feBlend mode="normal" in2="BackgroundImageFix" result="effect1_dropShadow_2725_245"/>
<feBlend mode="normal" in="SourceGraphic" in2="effect1_dropShadow_2725_245" result="shape"/>
</filter>
</defs>
</svg>
