<svg width="240" height="88" viewBox="0 0 240 88" fill="none" xmlns="http://www.w3.org/2000/svg">
<path fill-rule="evenodd" clip-rule="evenodd" d="M20 0C8.95431 0 0 8.95431 0 20V60C0 71.0457 8.9543 80 20 80H110.159L117.217 86.8771C118.754 88.3743 121.246 88.3743 122.783 86.8771L129.841 80H220C231.046 80 240 71.0457 240 60V20C240 8.95431 231.046 0 220 0H20Z" fill="black"/>
<path d="M35.912 39.648C35.912 38.08 36.296 36.632 37.064 35.304C37.848 33.976 38.904 32.928 40.232 32.16C41.56 31.376 43.008 30.984 44.576 30.984C46.176 30.984 47.656 31.4 49.016 32.232C50.376 33.048 51.424 34.136 52.16 35.496L49.4 36.96C48.92 36.112 48.248 35.432 47.384 34.92C46.52 34.392 45.584 34.128 44.576 34.128C43.584 34.128 42.656 34.376 41.792 34.872C40.944 35.368 40.272 36.04 39.776 36.888C39.28 37.736 39.032 38.656 39.032 39.648C39.032 40.64 39.28 41.56 39.776 42.408C40.272 43.256 40.944 43.928 41.792 44.424C42.656 44.92 43.584 45.168 44.576 45.168C45.616 45.168 46.56 44.904 47.408 44.376C48.272 43.848 48.944 43.144 49.424 42.264L52.184 43.776C51.448 45.152 50.4 46.256 49.04 47.088C47.68 47.904 46.192 48.312 44.576 48.312C43.008 48.312 41.56 47.928 40.232 47.16C38.904 46.376 37.848 45.32 37.064 43.992C36.296 42.664 35.912 41.216 35.912 39.648ZM59.4729 48.336C58.3369 48.336 57.2809 48.056 56.3049 47.496C55.3449 46.92 54.5769 46.152 54.0009 45.192C53.4409 44.216 53.1609 43.16 53.1609 42.024C53.1609 40.888 53.4409 39.84 54.0009 38.88C54.5769 37.904 55.3449 37.136 56.3049 36.576C57.2809 36 58.3369 35.712 59.4729 35.712C60.6089 35.712 61.6569 36 62.6169 36.576C63.5929 37.136 64.3609 37.904 64.9209 38.88C65.4969 39.84 65.7849 40.888 65.7849 42.024C65.7849 43.16 65.4969 44.216 64.9209 45.192C64.3609 46.152 63.5929 46.92 62.6169 47.496C61.6569 48.056 60.6089 48.336 59.4729 48.336ZM59.4489 45.36C60.0569 45.36 60.6169 45.216 61.1289 44.928C61.6409 44.624 62.0489 44.216 62.3529 43.704C62.6569 43.192 62.8089 42.632 62.8089 42.024C62.8089 41.416 62.6569 40.856 62.3529 40.344C62.0489 39.832 61.6409 39.424 61.1289 39.12C60.6169 38.816 60.0569 38.664 59.4489 38.664C58.8409 38.664 58.2809 38.816 57.7689 39.12C57.2569 39.424 56.8489 39.832 56.5449 40.344C56.2569 40.856 56.1129 41.416 56.1129 42.024C56.1129 42.632 56.2569 43.192 56.5449 43.704C56.8489 44.216 57.2569 44.624 57.7689 44.928C58.2809 45.216 58.8409 45.36 59.4489 45.36ZM81.3684 35.688C82.0724 35.688 82.7844 35.84 83.5044 36.144C84.2244 36.432 84.8404 36.96 85.3524 37.728C85.8804 38.496 86.1444 39.528 86.1444 40.824V48H83.1924V40.824C83.1924 39.928 82.9364 39.288 82.4244 38.904C81.9284 38.504 81.3444 38.304 80.6724 38.304C80.0964 38.304 79.5924 38.48 79.1604 38.832C78.7284 39.168 78.4484 39.712 78.3204 40.464V40.824V48H75.3684V40.824C75.3684 39.928 75.1124 39.288 74.6004 38.904C74.1044 38.504 73.5124 38.304 72.8244 38.304C72.2804 38.304 71.7844 38.472 71.3364 38.808C70.9044 39.144 70.6244 39.68 70.4964 40.416V48H67.5204V36H70.4964V36.936C70.8964 36.552 71.3524 36.248 71.8644 36.024C72.3924 35.8 72.9524 35.688 73.5444 35.688C74.2804 35.688 75.0244 35.848 75.7764 36.168C76.5284 36.488 77.1284 37.024 77.5764 37.776C77.9924 37.184 78.5364 36.688 79.2084 36.288C79.8804 35.888 80.6004 35.688 81.3684 35.688ZM102.345 35.688C103.049 35.688 103.761 35.84 104.481 36.144C105.201 36.432 105.817 36.96 106.329 37.728C106.857 38.496 107.121 39.528 107.121 40.824V48H104.169V40.824C104.169 39.928 103.913 39.288 103.401 38.904C102.905 38.504 102.321 38.304 101.649 38.304C101.073 38.304 100.569 38.48 100.137 38.832C99.7049 39.168 99.4249 39.712 99.2969 40.464V40.824V48H96.3449V40.824C96.3449 39.928 96.0889 39.288 95.5769 38.904C95.0809 38.504 94.4889 38.304 93.8009 38.304C93.2569 38.304 92.7609 38.472 92.3129 38.808C91.8809 39.144 91.6009 39.68 91.4729 40.416V48H88.4969V36H91.4729V36.936C91.8729 36.552 92.3289 36.248 92.8409 36.024C93.3689 35.8 93.9289 35.688 94.5209 35.688C95.2569 35.688 96.0009 35.848 96.7529 36.168C97.5049 36.488 98.1049 37.024 98.5529 37.776C98.9689 37.184 99.5129 36.688 100.185 36.288C100.857 35.888 101.577 35.688 102.345 35.688ZM111.478 34.008C110.918 34.008 110.478 33.856 110.158 33.552C109.838 33.248 109.678 32.832 109.678 32.304C109.678 31.76 109.838 31.336 110.158 31.032C110.478 30.728 110.918 30.576 111.478 30.576C112.038 30.576 112.478 30.728 112.798 31.032C113.118 31.336 113.278 31.76 113.278 32.304C113.278 32.816 113.11 33.232 112.774 33.552C112.454 33.856 112.022 34.008 111.478 34.008ZM109.966 48V36H112.942V48H109.966ZM122.015 35.688C122.719 35.688 123.431 35.84 124.151 36.144C124.887 36.432 125.511 36.96 126.023 37.728C126.551 38.496 126.815 39.528 126.815 40.824V48H123.839V40.824C123.839 39.928 123.583 39.288 123.071 38.904C122.575 38.504 121.991 38.304 121.319 38.304C120.647 38.304 120.071 38.544 119.591 39.024C119.127 39.488 118.895 40.24 118.895 41.28V48H115.919V36H118.895V37.008C119.327 36.608 119.807 36.288 120.335 36.048C120.863 35.808 121.423 35.688 122.015 35.688ZM138.616 36H141.592V47.4C141.592 48.536 141.304 49.536 140.728 50.4C140.168 51.264 139.384 51.928 138.376 52.392C137.368 52.872 136.24 53.112 134.992 53.112C133.6 53.112 132.336 52.84 131.2 52.296C130.064 51.768 129.264 51.072 128.8 50.208L131.344 48.744C131.584 49.208 132.032 49.592 132.688 49.896C133.344 50.216 134.136 50.376 135.064 50.376C136.088 50.376 136.936 50.096 137.608 49.536C138.28 48.992 138.616 48.28 138.616 47.4V46.848C138.072 47.328 137.464 47.696 136.792 47.952C136.12 48.208 135.424 48.336 134.704 48.336C133.488 48.336 132.424 48.064 131.512 47.52C130.6 46.976 129.896 46.224 129.4 45.264C128.92 44.304 128.68 43.224 128.68 42.024C128.68 40.824 128.92 39.744 129.4 38.784C129.896 37.824 130.6 37.072 131.512 36.528C132.424 35.968 133.488 35.688 134.704 35.688C135.424 35.688 136.112 35.824 136.768 36.096C137.44 36.352 138.056 36.712 138.616 37.176V36ZM135.088 45.48C135.744 45.48 136.336 45.336 136.864 45.048C137.408 44.744 137.832 44.328 138.136 43.8C138.456 43.272 138.616 42.672 138.616 42C138.616 40.992 138.272 40.168 137.584 39.528C136.912 38.888 136.08 38.568 135.088 38.568C134.08 38.568 133.248 38.896 132.592 39.552C131.952 40.192 131.632 41.016 131.632 42.024C131.632 43.032 131.952 43.864 132.592 44.52C133.248 45.16 134.08 45.48 135.088 45.48ZM156.577 48.312C154.929 48.312 153.545 47.944 152.425 47.208C151.305 46.472 150.521 45.48 150.073 44.232L152.713 42.672C153.369 44.384 154.681 45.24 156.649 45.24C157.529 45.24 158.209 45.032 158.689 44.616C159.169 44.2 159.409 43.72 159.409 43.176C159.409 42.632 159.145 42.192 158.617 41.856C158.105 41.52 157.185 41.16 155.857 40.776C154.817 40.456 153.937 40.112 153.217 39.744C152.497 39.36 151.905 38.848 151.441 38.208C150.993 37.568 150.769 36.76 150.769 35.784C150.769 34.792 151.017 33.928 151.513 33.192C152.009 32.44 152.665 31.872 153.481 31.488C154.313 31.088 155.217 30.888 156.193 30.888C157.553 30.888 158.729 31.216 159.721 31.872C160.729 32.512 161.505 33.416 162.049 34.584L159.361 36.12C158.737 34.696 157.681 33.984 156.193 33.984C155.521 33.984 154.969 34.16 154.537 34.512C154.105 34.864 153.889 35.28 153.889 35.76C153.889 36.128 153.985 36.44 154.177 36.696C154.385 36.952 154.705 37.184 155.137 37.392C155.585 37.6 156.233 37.832 157.081 38.088C158.185 38.44 159.113 38.808 159.865 39.192C160.633 39.576 161.265 40.112 161.761 40.8C162.273 41.472 162.529 42.32 162.529 43.344C162.529 44.352 162.273 45.232 161.761 45.984C161.249 46.736 160.537 47.312 159.625 47.712C158.729 48.112 157.713 48.312 156.577 48.312ZM169.957 48.336C168.821 48.336 167.765 48.056 166.789 47.496C165.829 46.92 165.061 46.152 164.485 45.192C163.925 44.216 163.645 43.16 163.645 42.024C163.645 40.888 163.925 39.84 164.485 38.88C165.061 37.904 165.829 37.136 166.789 36.576C167.765 36 168.821 35.712 169.957 35.712C171.093 35.712 172.141 36 173.101 36.576C174.077 37.136 174.845 37.904 175.405 38.88C175.981 39.84 176.269 40.888 176.269 42.024C176.269 43.16 175.981 44.216 175.405 45.192C174.845 46.152 174.077 46.92 173.101 47.496C172.141 48.056 171.093 48.336 169.957 48.336ZM169.933 45.36C170.541 45.36 171.101 45.216 171.613 44.928C172.125 44.624 172.533 44.216 172.837 43.704C173.141 43.192 173.293 42.632 173.293 42.024C173.293 41.416 173.141 40.856 172.837 40.344C172.533 39.832 172.125 39.424 171.613 39.12C171.101 38.816 170.541 38.664 169.933 38.664C169.325 38.664 168.765 38.816 168.253 39.12C167.741 39.424 167.333 39.832 167.029 40.344C166.741 40.856 166.597 41.416 166.597 42.024C166.597 42.632 166.741 43.192 167.029 43.704C167.333 44.216 167.741 44.624 168.253 44.928C168.765 45.216 169.325 45.36 169.933 45.36ZM183.809 48.336C182.673 48.336 181.617 48.056 180.641 47.496C179.681 46.92 178.913 46.152 178.337 45.192C177.777 44.216 177.497 43.16 177.497 42.024C177.497 40.888 177.777 39.84 178.337 38.88C178.913 37.904 179.681 37.136 180.641 36.576C181.617 36 182.673 35.712 183.809 35.712C184.945 35.712 185.993 36 186.953 36.576C187.929 37.136 188.697 37.904 189.257 38.88C189.833 39.84 190.121 40.888 190.121 42.024C190.121 43.16 189.833 44.216 189.257 45.192C188.697 46.152 187.929 46.92 186.953 47.496C185.993 48.056 184.945 48.336 183.809 48.336ZM183.785 45.36C184.393 45.36 184.953 45.216 185.465 44.928C185.977 44.624 186.385 44.216 186.689 43.704C186.993 43.192 187.145 42.632 187.145 42.024C187.145 41.416 186.993 40.856 186.689 40.344C186.385 39.832 185.977 39.424 185.465 39.12C184.953 38.816 184.393 38.664 183.785 38.664C183.177 38.664 182.617 38.816 182.105 39.12C181.593 39.424 181.185 39.832 180.881 40.344C180.593 40.856 180.449 41.416 180.449 42.024C180.449 42.632 180.593 43.192 180.881 43.704C181.185 44.216 181.593 44.624 182.105 44.928C182.617 45.216 183.177 45.36 183.785 45.36ZM198.116 35.688C198.82 35.688 199.532 35.84 200.252 36.144C200.988 36.432 201.612 36.96 202.124 37.728C202.652 38.496 202.916 39.528 202.916 40.824V48H199.94V40.824C199.94 39.928 199.684 39.288 199.172 38.904C198.676 38.504 198.092 38.304 197.42 38.304C196.748 38.304 196.172 38.544 195.692 39.024C195.228 39.488 194.996 40.24 194.996 41.28V48H192.02V36H194.996V37.008C195.428 36.608 195.908 36.288 196.436 36.048C196.964 35.808 197.524 35.688 198.116 35.688Z" fill="white"/>
</svg>
