<svg width="110" height="110" viewBox="0 0 110 110" fill="none" xmlns="http://www.w3.org/2000/svg">
<g filter="url(#filter0_d_10_37)">
<rect x="10" y="6" width="90" height="90" rx="45" fill="white"/>
</g>
<path d="M31.25 34C31.25 32.3431 32.5931 31 34.25 31H59.5305C61.1873 31 62.5305 32.3431 62.5305 34V46.5366C62.5305 48.1934 61.1873 49.5366 59.5305 49.5366H34.25C32.5931 49.5366 31.25 48.1934 31.25 46.5366V34Z" fill="#F4CEB2"/>
<path d="M31.25 37.9509H73.75C76.5114 37.9509 78.75 40.1895 78.75 42.9509V65.3899C78.75 68.1514 76.5114 70.3899 73.75 70.3899H36.25C33.4886 70.3899 31.25 68.1514 31.25 65.39V37.9509Z" fill="url(#paint0_linear_10_37)"/>
<path d="M62.5303 52.3782C62.5303 50.169 64.3211 48.3782 66.5303 48.3782H78.7498V59.9635H66.5303C64.3211 59.9635 62.5303 58.1727 62.5303 55.9635V52.3782Z" fill="#E74939"/>
<defs>
<filter id="filter0_d_10_37" x="0" y="0" width="110" height="110" filterUnits="userSpaceOnUse" color-interpolation-filters="sRGB">
<feFlood flood-opacity="0" result="BackgroundImageFix"/>
<feColorMatrix in="SourceAlpha" type="matrix" values="0 0 0 0 0 0 0 0 0 0 0 0 0 0 0 0 0 0 127 0" result="hardAlpha"/>
<feOffset dy="4"/>
<feGaussianBlur stdDeviation="5"/>
<feComposite in2="hardAlpha" operator="out"/>
<feColorMatrix type="matrix" values="0 0 0 0 0.721369 0 0 0 0 0.715937 0 0 0 0 0.9875 0 0 0 0.19 0"/>
<feBlend mode="normal" in2="BackgroundImageFix" result="effect1_dropShadow_10_37"/>
<feBlend mode="normal" in="SourceGraphic" in2="effect1_dropShadow_10_37" result="shape"/>
</filter>
<linearGradient id="paint0_linear_10_37" x1="55" y1="37.9509" x2="55" y2="70.3899" gradientUnits="userSpaceOnUse">
<stop stop-color="#EF996E"/>
<stop offset="1" stop-color="#ED7269"/>
</linearGradient>
</defs>
</svg>
