<svg width="110" height="110" viewBox="0 0 110 110" fill="none" xmlns="http://www.w3.org/2000/svg">
<g filter="url(#filter0_d_10_37)">
<rect x="10" y="6" width="90" height="90" rx="45" fill="white"/>
</g>
<path fill-rule="evenodd" clip-rule="evenodd" d="M47.4648 28.8283C47.0742 29.2188 47.0742 29.852 47.4648 30.2425L54.0055 36.7832C54.2754 37.0531 54.6612 37.1365 55.0027 37.0333C55.3442 37.1366 55.7301 37.0533 56.0001 36.7833L62.5408 30.2426C62.9313 29.852 62.9313 29.2189 62.5408 28.8283L60.4195 26.707C60.029 26.3165 59.3958 26.3165 59.0053 26.707L55.0028 30.7095L51.0003 26.707C50.6098 26.3164 49.9766 26.3164 49.5861 26.707L47.4648 28.8283Z" fill="#9EDBFB"/>
<rect x="31.25" y="36" width="47.5" height="12.5" rx="6.25" fill="#9EDBFB"/>
<path d="M36.875 42.25H73.125V66.25C73.125 69.5637 70.4387 72.25 67.125 72.25H42.875C39.5613 72.25 36.875 69.5637 36.875 66.25V42.25Z" fill="url(#paint0_linear_10_37)"/>
<path fill-rule="evenodd" clip-rule="evenodd" d="M73.125 48.3006C72.6226 48.4307 72.0957 48.5 71.5526 48.5H37.2784C37.1429 48.5 37.0084 48.4957 36.875 48.4872V42.25H73.125V48.3006Z" fill="#54B8F3"/>
<defs>
<filter id="filter0_d_10_37" x="0" y="0" width="110" height="110" filterUnits="userSpaceOnUse" color-interpolation-filters="sRGB">
<feFlood flood-opacity="0" result="BackgroundImageFix"/>
<feColorMatrix in="SourceAlpha" type="matrix" values="0 0 0 0 0 0 0 0 0 0 0 0 0 0 0 0 0 0 127 0" result="hardAlpha"/>
<feOffset dy="4"/>
<feGaussianBlur stdDeviation="5"/>
<feComposite in2="hardAlpha" operator="out"/>
<feColorMatrix type="matrix" values="0 0 0 0 0.721369 0 0 0 0 0.715937 0 0 0 0 0.9875 0 0 0 0.19 0"/>
<feBlend mode="normal" in2="BackgroundImageFix" result="effect1_dropShadow_10_37"/>
<feBlend mode="normal" in="SourceGraphic" in2="effect1_dropShadow_10_37" result="shape"/>
</filter>
<linearGradient id="paint0_linear_10_37" x1="55" y1="42.25" x2="55" y2="72.25" gradientUnits="userSpaceOnUse">
<stop stop-color="#7CD7FB"/>
<stop offset="1" stop-color="#49C1F7"/>
</linearGradient>
</defs>
</svg>
