<svg width="110" height="110" viewBox="0 0 110 110" fill="none" xmlns="http://www.w3.org/2000/svg">
<g filter="url(#filter0_d_10_37)">
<rect x="10" y="6" width="90" height="90" rx="45" fill="white"/>
</g>
<path d="M55.0004 28.875L60.4729 45.7177H78.1824L63.8551 56.1271L69.3276 72.9698L55.0004 62.5604L40.6731 72.9698L46.1456 56.1271L31.8184 45.7177H49.5278L55.0004 28.875Z" fill="url(#paint0_linear_10_37)"/>
<path d="M60.5241 45.4502L78.4001 45.4502L63.9381 56.2967L55.0001 62.5127L46.0621 56.2967L31.6001 45.4502L49.4761 45.4502H60.5241Z" fill="#C0A3F5"/>
<path d="M60.4322 45.4502H49.5679L46.0303 56.3702L55.0002 62.5127L63.9701 56.3702L60.4322 45.4502Z" fill="#5500FD"/>
<defs>
<filter id="filter0_d_10_37" x="0" y="0" width="110" height="110" filterUnits="userSpaceOnUse" color-interpolation-filters="sRGB">
<feFlood flood-opacity="0" result="BackgroundImageFix"/>
<feColorMatrix in="SourceAlpha" type="matrix" values="0 0 0 0 0 0 0 0 0 0 0 0 0 0 0 0 0 0 127 0" result="hardAlpha"/>
<feOffset dy="4"/>
<feGaussianBlur stdDeviation="5"/>
<feComposite in2="hardAlpha" operator="out"/>
<feColorMatrix type="matrix" values="0 0 0 0 0.721369 0 0 0 0 0.715937 0 0 0 0 0.9875 0 0 0 0.19 0"/>
<feBlend mode="normal" in2="BackgroundImageFix" result="effect1_dropShadow_10_37"/>
<feBlend mode="normal" in="SourceGraphic" in2="effect1_dropShadow_10_37" result="shape"/>
</filter>
<linearGradient id="paint0_linear_10_37" x1="55.0004" y1="28.875" x2="55.0004" y2="77.625" gradientUnits="userSpaceOnUse">
<stop stop-color="#9B3BF4"/>
<stop offset="1" stop-color="#8542FF"/>
</linearGradient>
</defs>
</svg>
