<svg width="110" height="110" viewBox="0 0 110 110" fill="none" xmlns="http://www.w3.org/2000/svg">
<g filter="url(#filter0_d_10_37)">
<rect x="10" y="6" width="90" height="90" rx="45" fill="white"/>
</g>
<circle cx="55" cy="46" r="20" fill="url(#paint0_linear_10_37)"/>
<path d="M43.75 55.25C43.75 53.5931 45.0931 52.25 46.75 52.25H63.25C64.9069 52.25 66.25 53.5931 66.25 55.25V76L55 69.5227L43.75 76V55.25Z" fill="#FAE5AE"/>
<path fill-rule="evenodd" clip-rule="evenodd" d="M43.75 62.5383V55.25C43.75 53.5931 45.0931 52.25 46.75 52.25H63.25C64.9069 52.25 66.25 53.5931 66.25 55.25V62.5383C63.0447 64.7229 59.1715 66 55 66C50.8285 66 46.9553 64.7229 43.75 62.5383Z" fill="#FEAD22"/>
<defs>
<filter id="filter0_d_10_37" x="0" y="0" width="110" height="110" filterUnits="userSpaceOnUse" color-interpolation-filters="sRGB">
<feFlood flood-opacity="0" result="BackgroundImageFix"/>
<feColorMatrix in="SourceAlpha" type="matrix" values="0 0 0 0 0 0 0 0 0 0 0 0 0 0 0 0 0 0 127 0" result="hardAlpha"/>
<feOffset dy="4"/>
<feGaussianBlur stdDeviation="5"/>
<feComposite in2="hardAlpha" operator="out"/>
<feColorMatrix type="matrix" values="0 0 0 0 0.721369 0 0 0 0 0.715937 0 0 0 0 0.9875 0 0 0 0.19 0"/>
<feBlend mode="normal" in2="BackgroundImageFix" result="effect1_dropShadow_10_37"/>
<feBlend mode="normal" in="SourceGraphic" in2="effect1_dropShadow_10_37" result="shape"/>
</filter>
<linearGradient id="paint0_linear_10_37" x1="55" y1="26" x2="55" y2="66" gradientUnits="userSpaceOnUse">
<stop stop-color="#FFF554"/>
<stop offset="1" stop-color="#FFCD4E"/>
</linearGradient>
</defs>
</svg>
