<svg width="133" height="22" viewBox="0 0 133 22" fill="none" xmlns="http://www.w3.org/2000/svg">
<path d="M34.7952 21.2862H44.5161L35.7871 0H26.0662H26.0608L22.2505 9.3293L18.4252 0H8.70427H8.69469L0 21.2903H1.64413L9.5236 1.99846L17.4332 21.2862H27.1541L23.0753 11.3386L26.8883 2.00252L34.7965 21.2862H34.7952ZM18.5416 19.6626L11.1444 1.62366H17.3168L21.3654 11.4969L24.7139 19.6626H18.5416ZM34.6787 1.62366L42.0759 19.6626H35.9036L28.5064 1.62366H34.6787Z" fill="white"/>
<path d="M66.9088 1.58057L61.1332 16.1459L55.3348 1.58057H52.2651V19.6266H54.5666V5.63865L60.1366 19.6266H62.12L67.6885 5.63865V19.6266H69.9768V1.58057H66.9088Z" fill="white"/>
<path d="M86.8862 13.1434C86.8862 10.8925 86.2289 9.03473 84.9305 7.61897C83.6257 6.19505 81.9196 5.47412 79.8579 5.47412C77.7963 5.47412 76.0135 6.16569 74.663 7.52926C73.3125 8.89283 72.6274 10.6381 72.6274 12.716C72.6274 14.794 73.3255 16.4349 74.7022 17.8539C76.082 19.2745 77.793 19.9955 79.7862 19.9955C81.29 19.9955 82.634 19.5828 83.7807 18.7673C84.9208 17.9566 85.8178 16.7823 86.4442 15.2784L86.6317 14.8266H84.0237L83.9356 15.0142C83.5344 15.8656 82.9586 16.5392 82.2246 17.0155C81.4939 17.4902 80.6572 17.7299 79.7389 17.7299C78.4193 17.7299 77.3526 17.3271 76.4751 16.4968C75.6857 15.7498 75.2094 14.7728 75.0577 13.5919H86.8862V13.1417V13.1434ZM76.5877 8.82269C77.4179 8.0773 78.4047 7.7152 79.6068 7.7152C80.8888 7.7152 81.9392 8.06099 82.7253 8.74277C83.4414 9.36421 83.9633 10.2792 84.2814 11.4699H75.1328C75.3595 10.3755 75.8472 9.48491 76.586 8.82106L76.5877 8.82269Z" fill="white"/>
<path d="M92.8765 5.83275V1.58057H90.5392V5.83275H88.042V8.18147H90.5392V19.6266H92.8765V8.18147H95.372V5.83275H92.8765Z" fill="white"/>
<path d="M108.391 5.8328V7.36926C107.918 6.88647 107.372 6.49338 106.757 6.1949C105.871 5.76429 104.888 5.54736 103.831 5.54736C101.782 5.54736 100.052 6.24709 98.6831 7.62697C97.3162 9.00685 96.623 10.7439 96.623 12.7909C96.623 14.8379 97.3016 16.5244 98.639 17.8978C99.9781 19.276 101.678 19.9741 103.687 19.9741C104.767 19.9741 105.79 19.7458 106.726 19.2972C107.368 18.9889 107.925 18.5959 108.391 18.1245V19.6283H110.693V5.83443H108.391V5.8328ZM100.419 9.22215C101.355 8.24188 102.456 7.76398 103.785 7.76398C105.002 7.76398 106.051 8.24025 106.99 9.22215C107.934 10.2073 108.393 11.3278 108.393 12.6457C108.393 14.0501 107.921 15.2685 106.993 16.2634C106.057 17.2665 104.994 17.7542 103.738 17.7542C102.482 17.7542 101.343 17.2926 100.41 16.3401C99.4758 15.3876 99.0223 14.2491 99.0223 12.8594C99.0223 11.4698 99.4921 10.191 100.42 9.22051L100.419 9.22215Z" fill="white"/>
<path d="M116.289 5.8335H113.952V19.6274H116.289V5.8335Z" fill="white"/>
<path d="M116.289 1.58057H113.952V4.94545H116.289V1.58057Z" fill="white"/>
<path d="M130.123 15.0582C129.745 15.9031 129.187 16.567 128.465 17.0318C127.74 17.4967 126.892 17.7332 125.941 17.7332C124.63 17.7332 123.56 17.2683 122.668 16.3142C121.782 15.3665 121.334 14.1644 121.334 12.7438C121.334 11.3231 121.78 10.1145 122.663 9.15379C123.55 8.1882 124.599 7.71845 125.87 7.71845C126.83 7.71845 127.667 7.93375 128.357 8.3562C129.049 8.78191 129.647 9.4539 130.135 10.3543L130.228 10.5255H132.762L132.59 10.0819C132.027 8.63348 131.166 7.49337 130.03 6.69089C128.892 5.88677 127.561 5.479 126.073 5.479C124.088 5.479 122.381 6.19341 120.996 7.60102C119.614 9.00699 118.913 10.7473 118.913 12.7699C118.913 14.7924 119.605 16.4707 120.97 17.8767C122.338 19.2859 124.038 20.0003 126.025 20.0003C127.569 20.0003 128.931 19.5861 130.073 18.7689C131.215 17.9534 132.061 16.7872 132.591 15.3045L132.748 14.869H130.21L130.123 15.0615V15.0582Z" fill="white"/>
</svg>
