<svg width="96" height="96" viewBox="0 0 96 96" fill="none" xmlns="http://www.w3.org/2000/svg">
<rect width="96" height="96" rx="20" fill="black"/>
<path d="M39.9139 72.6011C40.2187 72.1438 40.5236 71.6865 40.5236 71.534V65.2842C31.0727 67.2659 29.0911 61.3209 29.0911 61.3209C27.5667 57.3577 25.2802 56.2906 25.2802 56.2906C22.2315 54.1565 25.5851 54.1565 25.5851 54.1565C28.9386 54.4614 30.7678 57.6625 30.7678 57.6625C33.8165 62.8453 38.6944 61.3209 40.676 60.5588C40.9809 58.4247 41.8955 56.9004 42.8101 55.9857C35.1884 55.0711 27.2618 52.1749 27.2618 39.218C27.2618 35.5596 28.6338 32.5109 30.7678 30.072C30.463 29.1574 29.2435 25.8038 31.0727 21.0783C31.0727 21.0783 33.9689 20.1637 40.3712 24.5843C43.115 23.8222 46.0112 23.5173 48.9075 23.5173C51.8037 23.5173 54.7 23.9746 57.4438 24.5843C63.9984 20.1637 66.7423 21.0783 66.7423 21.0783C68.5715 25.8038 67.5044 29.1574 67.0471 30.072C69.1812 32.5109 70.5531 35.4071 70.5531 39.218C70.5531 52.1749 62.6265 55.0711 55.0048 55.9857C56.2243 57.0528 57.2913 59.0344 57.2913 62.2355V71.534C57.2913 71.8389 57.4438 72.1438 57.9011 72.6011C58.3584 73.2108 58.206 74.2778 57.5962 74.7351C57.2914 74.8876 56.9865 75.04 56.6816 75.04H41.1333C40.2187 75.04 39.609 74.4303 39.609 73.5157C39.609 73.0584 39.7614 72.7535 39.9139 72.6011Z" fill="white"/>
</svg>
