<svg width="128" height="32" viewBox="0 0 128 32" fill="none" xmlns="http://www.w3.org/2000/svg">
<circle cx="16" cy="16" r="16" fill="black"/>
<path d="M22.7592 21.9975H28L23.294 9H18.0531H18.0502L15.9959 14.6965L13.9336 9H8.69274H8.68758L4 22H4.8864L9.13447 10.2203L13.3988 21.9975H18.6396L16.4406 15.9234L18.4963 10.2228L22.7599 21.9975H22.7592ZM13.9964 21.0061L10.0083 9.99142H13.336L15.5188 16.0201L17.3241 21.0061H13.9964ZM22.6964 9.99142L26.6844 21.0061H23.3567L19.3687 9.99142H22.6964Z" fill="white"/>
<path d="M58.394 7L52.3225 20.9323L46.2269 7H43V24.2617H45.4193V10.8817L51.2748 24.2617H53.3598L59.2136 10.8817V24.2617H61.6192V7H58.394Z" fill="black"/>
<path d="M79.3946 18.0599C79.3946 15.9069 78.7036 14.1299 77.3388 12.7756C75.9671 11.4136 74.1736 10.724 72.0063 10.724C69.839 10.724 67.9649 11.3855 66.5451 12.6898C65.1254 13.9941 64.4053 15.6635 64.4053 17.6512C64.4053 19.6388 65.1391 21.2083 66.5863 22.5657C68.0369 23.9246 69.8355 24.6142 71.9308 24.6142C73.5117 24.6142 74.9246 24.2195 76.13 23.4394C77.3285 22.664 78.2715 21.5406 78.93 20.1022L79.1271 19.67H76.3854L76.2928 19.8494C75.871 20.6638 75.2658 21.3082 74.4942 21.7638C73.726 22.2178 72.8464 22.4471 71.8811 22.4471C70.494 22.4471 69.3726 22.0617 68.4501 21.2676C67.6202 20.5531 67.1195 19.6185 66.9601 18.489H79.3946V18.0584V18.0599ZM68.5684 13.927C69.4412 13.214 70.4785 12.8677 71.7422 12.8677C73.0899 12.8677 74.1941 13.1984 75.0206 13.8506C75.7733 14.445 76.322 15.3203 76.6563 16.4592H67.039C67.2773 15.4123 67.79 14.5605 68.5667 13.9255L68.5684 13.927Z" fill="black"/>
<path d="M85.6925 11.0674V7H83.2355V11.0674H80.6104V13.314H83.2355V24.2617H85.6925V13.314H88.3159V11.0674H85.6925Z" fill="black"/>
<path d="M102.002 11.0675V12.5371C101.505 12.0753 100.931 11.6993 100.284 11.4138C99.3533 11.0019 98.3194 10.7944 97.2083 10.7944C95.0547 10.7944 93.2355 11.4637 91.7969 12.7836C90.3601 14.1036 89.6313 15.7651 89.6313 17.7231C89.6313 19.6812 90.3446 21.2944 91.7506 22.608C93.1584 23.9264 94.945 24.5941 97.0574 24.5941C98.1925 24.5941 99.2676 24.3757 100.252 23.9467C100.927 23.6518 101.512 23.2758 102.002 22.8249V24.2634H104.422V11.069H102.002V11.0675ZM93.6213 14.3095C94.6055 13.3718 95.7629 12.9147 97.1603 12.9147C98.4394 12.9147 99.5419 13.3703 100.53 14.3095C101.522 15.2518 102.004 16.3237 102.004 17.5843C102.004 18.9276 101.509 20.093 100.533 21.0447C99.5488 22.0042 98.4309 22.4707 97.1106 22.4707C95.7903 22.4707 94.5935 22.0292 93.6127 21.1181C92.6302 20.2069 92.1536 19.1179 92.1536 17.7887C92.1536 16.4594 92.6474 15.2362 93.623 14.3079L93.6213 14.3095Z" fill="black"/>
<path d="M110.305 11.0674H107.848V24.2617H110.305V11.0674Z" fill="black"/>
<path d="M110.305 7H107.848V10.2186H110.305V7Z" fill="black"/>
<path d="M124.848 19.8918C124.45 20.6999 123.864 21.3349 123.104 21.7796C122.343 22.2242 121.451 22.4504 120.452 22.4504C119.073 22.4504 117.948 22.0058 117.011 21.0931C116.08 20.1866 115.608 19.0368 115.608 17.6779C115.608 16.319 116.078 15.1629 117.005 14.2439C117.938 13.3203 119.041 12.871 120.376 12.871C121.386 12.871 122.266 13.0769 122.991 13.481C123.718 13.8882 124.348 14.531 124.86 15.3922L124.958 15.556H127.622L127.441 15.1317C126.849 13.7462 125.944 12.6557 124.75 11.8881C123.554 11.1189 122.154 10.7289 120.591 10.7289C118.504 10.7289 116.709 11.4122 115.253 12.7587C113.801 14.1035 113.063 15.7682 113.063 17.7028C113.063 19.6375 113.79 21.2429 115.226 22.5877C116.664 23.9357 118.451 24.6191 120.539 24.6191C122.163 24.6191 123.595 24.2228 124.795 23.4411C125.995 22.6611 126.885 21.5455 127.442 20.1273L127.607 19.7108H124.939L124.848 19.8949V19.8918Z" fill="black"/>
</svg>
