<svg width="96" height="96" viewBox="0 0 96 96" fill="none" xmlns="http://www.w3.org/2000/svg">
<rect width="96" height="96" rx="20" fill="black"/>
<mask id="mask0_51_44" style="mask-type:alpha" maskUnits="userSpaceOnUse" x="0" y="0" width="96" height="96">
<rect width="96" height="96" rx="20" fill="black"/>
</mask>
<g mask="url(#mask0_51_44)">
<path d="M66 94C66 77.4315 79.4315 64 96 64H111V109H66V94Z" fill="#FF5CB4"/>
<path d="M84.9385 76.228V76.2H86.7585V86H84.9385V79.532L82.2225 84.082H81.7745L79.0585 79.532V86H77.2245V76.2H79.0585V76.228L79.1005 76.2L81.9985 81.086L84.8965 76.2L84.9385 76.228Z" fill="white"/>
</g>
<path fill-rule="evenodd" clip-rule="evenodd" d="M43.2228 50.3146L26.5127 26.1289H39.2371L50.2586 42.0811L63.8905 26.1289H67.8669L52.0363 44.6541L69.4574 69.8689H56.733L45.0004 52.8875L30.4891 69.8689H26.5127L43.2228 50.3146ZM58.3183 66.8469L32.2738 29.1509H37.6518L63.6963 66.8469H58.3183Z" fill="white"/>
</svg>
